<mxfile host="app.diagrams.net" modified="2022-08-19T12:36:35.854Z" agent="5.0 (Macintosh; Intel Mac OS X 10_15_7) AppleWebKit/537.36 (KHTML, like Gecko) Chrome/104.0.0.0 Safari/537.36" etag="ACUcuK7UOMDXGR9FTtvG" version="20.2.5" type="github">
  <diagram id="tTv8_s_wPASr3IMFoWjR" name="Pagina-1">
    <mxGraphModel dx="946" dy="614" grid="1" gridSize="10" guides="1" tooltips="1" connect="1" arrows="1" fold="1" page="1" pageScale="1" pageWidth="827" pageHeight="1169" math="0" shadow="0">
      <root>
        <mxCell id="0" />
        <mxCell id="1" parent="0" />
        <mxCell id="Rqe5vKvDpMaW0ZktxxFB-2" style="edgeStyle=orthogonalEdgeStyle;rounded=0;orthogonalLoop=1;jettySize=auto;html=1;" edge="1" parent="1" source="Rqe5vKvDpMaW0ZktxxFB-1">
          <mxGeometry relative="1" as="geometry">
            <mxPoint x="260" y="200" as="targetPoint" />
          </mxGeometry>
        </mxCell>
        <mxCell id="Rqe5vKvDpMaW0ZktxxFB-1" value="START" style="ellipse;whiteSpace=wrap;html=1;" vertex="1" parent="1">
          <mxGeometry x="200" y="100" width="120" height="50" as="geometry" />
        </mxCell>
        <mxCell id="Rqe5vKvDpMaW0ZktxxFB-4" style="edgeStyle=orthogonalEdgeStyle;rounded=0;orthogonalLoop=1;jettySize=auto;html=1;" edge="1" parent="1" source="Rqe5vKvDpMaW0ZktxxFB-3">
          <mxGeometry relative="1" as="geometry">
            <mxPoint x="260" y="370" as="targetPoint" />
          </mxGeometry>
        </mxCell>
        <mxCell id="Rqe5vKvDpMaW0ZktxxFB-3" value="FOR n&lt;br&gt;From 1 to 30" style="rhombus;whiteSpace=wrap;html=1;" vertex="1" parent="1">
          <mxGeometry x="200" y="200" width="120" height="90" as="geometry" />
        </mxCell>
        <mxCell id="Rqe5vKvDpMaW0ZktxxFB-6" style="edgeStyle=orthogonalEdgeStyle;rounded=0;orthogonalLoop=1;jettySize=auto;html=1;" edge="1" parent="1" source="Rqe5vKvDpMaW0ZktxxFB-5">
          <mxGeometry relative="1" as="geometry">
            <mxPoint x="260" y="510" as="targetPoint" />
          </mxGeometry>
        </mxCell>
        <mxCell id="Rqe5vKvDpMaW0ZktxxFB-10" style="edgeStyle=orthogonalEdgeStyle;rounded=0;orthogonalLoop=1;jettySize=auto;html=1;" edge="1" parent="1" source="Rqe5vKvDpMaW0ZktxxFB-5">
          <mxGeometry relative="1" as="geometry">
            <mxPoint x="500" y="420" as="targetPoint" />
          </mxGeometry>
        </mxCell>
        <mxCell id="Rqe5vKvDpMaW0ZktxxFB-5" value="IF n MOD 3 == 0" style="rhombus;whiteSpace=wrap;html=1;" vertex="1" parent="1">
          <mxGeometry x="205" y="370" width="110" height="100" as="geometry" />
        </mxCell>
        <mxCell id="Rqe5vKvDpMaW0ZktxxFB-8" style="edgeStyle=orthogonalEdgeStyle;rounded=0;orthogonalLoop=1;jettySize=auto;html=1;" edge="1" parent="1" source="Rqe5vKvDpMaW0ZktxxFB-7">
          <mxGeometry relative="1" as="geometry">
            <mxPoint x="260" y="650" as="targetPoint" />
          </mxGeometry>
        </mxCell>
        <mxCell id="Rqe5vKvDpMaW0ZktxxFB-19" style="edgeStyle=orthogonalEdgeStyle;rounded=0;orthogonalLoop=1;jettySize=auto;html=1;" edge="1" parent="1" source="Rqe5vKvDpMaW0ZktxxFB-7">
          <mxGeometry relative="1" as="geometry">
            <mxPoint x="420" y="560" as="targetPoint" />
          </mxGeometry>
        </mxCell>
        <mxCell id="Rqe5vKvDpMaW0ZktxxFB-7" value="IF n MOD 5 == 0" style="rhombus;whiteSpace=wrap;html=1;" vertex="1" parent="1">
          <mxGeometry x="210" y="510" width="100" height="100" as="geometry" />
        </mxCell>
        <mxCell id="Rqe5vKvDpMaW0ZktxxFB-24" style="edgeStyle=orthogonalEdgeStyle;rounded=0;orthogonalLoop=1;jettySize=auto;html=1;entryX=0.5;entryY=0;entryDx=0;entryDy=0;" edge="1" parent="1" source="Rqe5vKvDpMaW0ZktxxFB-9" target="Rqe5vKvDpMaW0ZktxxFB-18">
          <mxGeometry relative="1" as="geometry" />
        </mxCell>
        <mxCell id="Rqe5vKvDpMaW0ZktxxFB-9" value="Output(&quot;FIZZBUZZ)" style="shape=parallelogram;perimeter=parallelogramPerimeter;whiteSpace=wrap;html=1;fixedSize=1;" vertex="1" parent="1">
          <mxGeometry x="170" y="660" width="180" height="60" as="geometry" />
        </mxCell>
        <mxCell id="Rqe5vKvDpMaW0ZktxxFB-12" style="edgeStyle=orthogonalEdgeStyle;rounded=0;orthogonalLoop=1;jettySize=auto;html=1;" edge="1" parent="1" source="Rqe5vKvDpMaW0ZktxxFB-11">
          <mxGeometry relative="1" as="geometry">
            <mxPoint x="550" y="510" as="targetPoint" />
          </mxGeometry>
        </mxCell>
        <mxCell id="Rqe5vKvDpMaW0ZktxxFB-14" style="edgeStyle=orthogonalEdgeStyle;rounded=0;orthogonalLoop=1;jettySize=auto;html=1;" edge="1" parent="1" source="Rqe5vKvDpMaW0ZktxxFB-11">
          <mxGeometry relative="1" as="geometry">
            <mxPoint x="740" y="510" as="targetPoint" />
          </mxGeometry>
        </mxCell>
        <mxCell id="Rqe5vKvDpMaW0ZktxxFB-11" value="IF&lt;br&gt;n MOD 5 == 0" style="rhombus;whiteSpace=wrap;html=1;" vertex="1" parent="1">
          <mxGeometry x="500" y="375" width="100" height="90" as="geometry" />
        </mxCell>
        <mxCell id="Rqe5vKvDpMaW0ZktxxFB-17" style="edgeStyle=orthogonalEdgeStyle;rounded=0;orthogonalLoop=1;jettySize=auto;html=1;" edge="1" parent="1" source="Rqe5vKvDpMaW0ZktxxFB-13">
          <mxGeometry relative="1" as="geometry">
            <mxPoint x="550" y="840" as="targetPoint" />
          </mxGeometry>
        </mxCell>
        <mxCell id="Rqe5vKvDpMaW0ZktxxFB-13" value="OUTPUT(&quot;Buzz&quot;)" style="shape=parallelogram;perimeter=parallelogramPerimeter;whiteSpace=wrap;html=1;fixedSize=1;" vertex="1" parent="1">
          <mxGeometry x="490" y="525" width="120" height="60" as="geometry" />
        </mxCell>
        <mxCell id="Rqe5vKvDpMaW0ZktxxFB-16" style="edgeStyle=orthogonalEdgeStyle;rounded=0;orthogonalLoop=1;jettySize=auto;html=1;" edge="1" parent="1" source="Rqe5vKvDpMaW0ZktxxFB-15">
          <mxGeometry relative="1" as="geometry">
            <mxPoint x="260" y="890" as="targetPoint" />
            <Array as="points">
              <mxPoint x="750" y="840" />
            </Array>
          </mxGeometry>
        </mxCell>
        <mxCell id="Rqe5vKvDpMaW0ZktxxFB-15" value="OUTPUT(N)" style="shape=parallelogram;perimeter=parallelogramPerimeter;whiteSpace=wrap;html=1;fixedSize=1;" vertex="1" parent="1">
          <mxGeometry x="680" y="525" width="120" height="60" as="geometry" />
        </mxCell>
        <mxCell id="Rqe5vKvDpMaW0ZktxxFB-18" value="END" style="ellipse;whiteSpace=wrap;html=1;" vertex="1" parent="1">
          <mxGeometry x="205" y="890" width="110" height="30" as="geometry" />
        </mxCell>
        <mxCell id="Rqe5vKvDpMaW0ZktxxFB-20" value="" style="endArrow=none;html=1;rounded=0;" edge="1" parent="1">
          <mxGeometry width="50" height="50" relative="1" as="geometry">
            <mxPoint x="420" y="660" as="sourcePoint" />
            <mxPoint x="420" y="660" as="targetPoint" />
            <Array as="points">
              <mxPoint x="420" y="560" />
            </Array>
          </mxGeometry>
        </mxCell>
        <mxCell id="Rqe5vKvDpMaW0ZktxxFB-21" value="" style="endArrow=classic;html=1;rounded=0;" edge="1" parent="1">
          <mxGeometry width="50" height="50" relative="1" as="geometry">
            <mxPoint x="420" y="560" as="sourcePoint" />
            <mxPoint x="420" y="660" as="targetPoint" />
          </mxGeometry>
        </mxCell>
        <mxCell id="Rqe5vKvDpMaW0ZktxxFB-23" style="edgeStyle=orthogonalEdgeStyle;rounded=0;orthogonalLoop=1;jettySize=auto;html=1;" edge="1" parent="1" source="Rqe5vKvDpMaW0ZktxxFB-22">
          <mxGeometry relative="1" as="geometry">
            <mxPoint x="430" y="800" as="targetPoint" />
          </mxGeometry>
        </mxCell>
        <mxCell id="Rqe5vKvDpMaW0ZktxxFB-22" value="OUTPUT(&quot;Fizz&quot;)" style="shape=parallelogram;perimeter=parallelogramPerimeter;whiteSpace=wrap;html=1;fixedSize=1;" vertex="1" parent="1">
          <mxGeometry x="370" y="660" width="120" height="60" as="geometry" />
        </mxCell>
        <mxCell id="Rqe5vKvDpMaW0ZktxxFB-25" value="" style="endArrow=classic;html=1;rounded=0;" edge="1" parent="1">
          <mxGeometry width="50" height="50" relative="1" as="geometry">
            <mxPoint x="430" y="800" as="sourcePoint" />
            <mxPoint x="260" y="800" as="targetPoint" />
            <Array as="points">
              <mxPoint x="350" y="800" />
            </Array>
          </mxGeometry>
        </mxCell>
        <mxCell id="Rqe5vKvDpMaW0ZktxxFB-26" value="" style="endArrow=none;html=1;rounded=0;" edge="1" parent="1">
          <mxGeometry width="50" height="50" relative="1" as="geometry">
            <mxPoint x="60" y="860" as="sourcePoint" />
            <mxPoint x="260" y="860" as="targetPoint" />
          </mxGeometry>
        </mxCell>
        <mxCell id="Rqe5vKvDpMaW0ZktxxFB-27" value="" style="endArrow=none;html=1;rounded=0;" edge="1" parent="1">
          <mxGeometry width="50" height="50" relative="1" as="geometry">
            <mxPoint x="60" y="860" as="sourcePoint" />
            <mxPoint x="60" y="230" as="targetPoint" />
          </mxGeometry>
        </mxCell>
        <mxCell id="Rqe5vKvDpMaW0ZktxxFB-28" value="" style="endArrow=classic;html=1;rounded=0;" edge="1" parent="1">
          <mxGeometry width="50" height="50" relative="1" as="geometry">
            <mxPoint x="60" y="230" as="sourcePoint" />
            <mxPoint x="190" y="230" as="targetPoint" />
          </mxGeometry>
        </mxCell>
        <mxCell id="Rqe5vKvDpMaW0ZktxxFB-29" value="false" style="text;html=1;align=center;verticalAlign=middle;resizable=0;points=[];autosize=1;strokeColor=none;fillColor=none;" vertex="1" parent="1">
          <mxGeometry x="305" y="415" width="50" height="30" as="geometry" />
        </mxCell>
        <mxCell id="Rqe5vKvDpMaW0ZktxxFB-31" value="false" style="text;html=1;align=center;verticalAlign=middle;resizable=0;points=[];autosize=1;strokeColor=none;fillColor=none;" vertex="1" parent="1">
          <mxGeometry x="695" y="415" width="50" height="30" as="geometry" />
        </mxCell>
        <mxCell id="Rqe5vKvDpMaW0ZktxxFB-32" value="false" style="text;html=1;align=center;verticalAlign=middle;resizable=0;points=[];autosize=1;strokeColor=none;fillColor=none;" vertex="1" parent="1">
          <mxGeometry x="305" y="555" width="50" height="30" as="geometry" />
        </mxCell>
        <mxCell id="Rqe5vKvDpMaW0ZktxxFB-33" value="true" style="text;html=1;align=center;verticalAlign=middle;resizable=0;points=[];autosize=1;strokeColor=none;fillColor=none;" vertex="1" parent="1">
          <mxGeometry x="265" y="465" width="40" height="30" as="geometry" />
        </mxCell>
        <mxCell id="Rqe5vKvDpMaW0ZktxxFB-34" value="true" style="text;html=1;align=center;verticalAlign=middle;resizable=0;points=[];autosize=1;strokeColor=none;fillColor=none;" vertex="1" parent="1">
          <mxGeometry x="260" y="595" width="40" height="30" as="geometry" />
        </mxCell>
        <mxCell id="Rqe5vKvDpMaW0ZktxxFB-35" value="true" style="text;html=1;align=center;verticalAlign=middle;resizable=0;points=[];autosize=1;strokeColor=none;fillColor=none;" vertex="1" parent="1">
          <mxGeometry x="550" y="460" width="40" height="30" as="geometry" />
        </mxCell>
        <mxCell id="Rqe5vKvDpMaW0ZktxxFB-36" value="Loop" style="text;html=1;align=center;verticalAlign=middle;resizable=0;points=[];autosize=1;strokeColor=none;fillColor=none;" vertex="1" parent="1">
          <mxGeometry x="55" y="815" width="50" height="30" as="geometry" />
        </mxCell>
      </root>
    </mxGraphModel>
  </diagram>
</mxfile>
